<svg id="Calque_1" data-name="Calque 1" xmlns="http://www.w3.org/2000/svg" xmlns:xlink="http://www.w3.org/1999/xlink" viewBox="0 0 610.34 90.3"><defs><style>.cls-1{fill:none;}.cls-2{fill:#c2be00;}.cls-3{fill:#71a95f;}.cls-4{fill:#148b29;}.cls-5{clip-path:url(#clip-path);}.cls-6{fill:#d4d05f;}.cls-7{fill:#9fc28e;}.cls-8{fill:#74aa61;}.cls-9{clip-path:url(#clip-path-2);}.cls-10{fill:#72a960;}.cls-11{fill:#c3bf00;}</style><clipPath id="clip-path" transform="translate(-8.34 -10.75)"><rect class="cls-1" x="-52.53" y="-311" width="792" height="612"/></clipPath><clipPath id="clip-path-2" transform="translate(-8.34 -10.75)"><rect class="cls-1" x="8.34" y="10.76" width="78.65" height="81.58"/></clipPath></defs><title>logo_header_fr</title><path class="cls-2" d="M97.84,89.55l7.92-27.84h5.69l7.33,27.84h-4.64l-1.71-6.82h-8.15l-1.8,6.82Zm7.26-10.37h6.59l-3.2-13.73h-.08Z" transform="translate(-8.34 -10.75)"/><path class="cls-2" d="M121.87,89.55V61.71h5.45l8.12,20.75V61.71h4.21V89.55H134.2l-8.12-21.29V89.55Z" transform="translate(-8.34 -10.75)"/><path class="cls-2" d="M142.73,89.55l7.92-27.84h5.69l7.33,27.84H159l-1.71-6.82h-8.16l-1.79,6.82ZM150,79.18h6.6l-3.2-13.73h-.08Z" transform="translate(-8.34 -10.75)"/><path class="cls-2" d="M166.52,89.55V61.71H171v24.1h10.76v3.74Z" transform="translate(-8.34 -10.75)"/><path class="cls-2" d="M187.42,89.55V78.67l-7.17-17h4.95l4.68,12,4.8-12h4.64l-7.45,17V89.55Z" transform="translate(-8.34 -10.75)"/><path class="cls-2" d="M200.72,80.94h4.45v.7c0,3.4,1.52,5.11,4.56,5.11a4.13,4.13,0,0,0,3.16-1.25,4,4,0,0,0,1.05-2.81,4.68,4.68,0,0,0-1.05-3.24A6.91,6.91,0,0,0,210,77.74l-3-1.06a9.12,9.12,0,0,1-4.44-2.84,7.75,7.75,0,0,1-1.37-4.8,7.34,7.34,0,0,1,2.34-5.81,9.2,9.2,0,0,1,6.32-2.07q7.88,0,7.88,7.34v.62H213.2v-.59q0-4-3.9-4-3.74,0-3.74,4a4.12,4.12,0,0,0,.95,2.83,7.78,7.78,0,0,0,3.22,1.89l3,1.09A9.48,9.48,0,0,1,217,77.15a7.2,7.2,0,0,1,1.35,4.57q0,8.39-9.21,8.38c-3.12,0-5.39-.93-6.82-2.81a9.15,9.15,0,0,1-1.64-5.69Z" transform="translate(-8.34 -10.75)"/><path class="cls-2" d="M222.41,89.55V61.71h15.05v3.74H226.85v7.72h10v3.75h-10v8.89h10.92v3.74Z" transform="translate(-8.34 -10.75)"/><path class="cls-2" d="M241.55,89.55V61.71h9.83a7.17,7.17,0,0,1,5,1.64,7,7,0,0,1,2.07,5.53,8.23,8.23,0,0,1-1.17,4.57,4.89,4.89,0,0,1-3.47,2.26v.08q4.17.42,4.37,5.69c0,1.33.08,3.21.15,5.66a2.9,2.9,0,0,0,1.33,2.41h-5a4.8,4.8,0,0,1-.74-2.45c0-.31-.09-2.07-.2-5.27a5.41,5.41,0,0,0-1-3.35,3.94,3.94,0,0,0-3.1-1H246V89.55ZM246,74.11h3.55a4.32,4.32,0,0,0,3.27-1.21A4.56,4.56,0,0,0,254,69.59q0-4.53-4.22-4.53H246Z" transform="translate(-8.34 -10.75)"/><path class="cls-3" d="M281.86,89.55V61.71h4.44V89.55Z" transform="translate(-8.34 -10.75)"/><path class="cls-3" d="M291.25,89.55V61.71h5.46l8.12,20.75V61.71H309V89.55h-5.45l-8.12-21.29V89.55Z" transform="translate(-8.34 -10.75)"/><path class="cls-3" d="M314.15,89.55V61.71H329v3.74H318.59v7.72h9.79v3.75h-9.79V89.55Z" transform="translate(-8.34 -10.75)"/><path class="cls-3" d="M341.25,90.1q-4.8,0-7-3.49t-2.2-11q0-7.48,2.2-11c1.47-2.32,3.8-3.49,7-3.49s5.53,1.17,7,3.49,2.21,6,2.21,11-.74,8.65-2.21,11S344.45,90.1,341.25,90.1Zm0-3.35a3.59,3.59,0,0,0,3.39-2c.91-1.72,1.37-4.78,1.37-9.21s-.46-7.31-1.37-9a3.59,3.59,0,0,0-3.39-2,3.52,3.52,0,0,0-3.35,2q-1.41,2.53-1.41,9c0,4.43.47,7.49,1.41,9.21A3.52,3.52,0,0,0,341.25,86.75Z" transform="translate(-8.34 -10.75)"/><path class="cls-3" d="M354.86,89.55V61.71h9.83a7.17,7.17,0,0,1,5,1.64,7,7,0,0,1,2.07,5.53,8.23,8.23,0,0,1-1.17,4.57,4.89,4.89,0,0,1-3.47,2.26v.08q4.17.42,4.37,5.69c0,1.33.08,3.21.15,5.66A2.88,2.88,0,0,0,373,89.55h-5a4.8,4.8,0,0,1-.74-2.45c0-.31-.09-2.07-.2-5.27a5.41,5.41,0,0,0-.95-3.35,3.94,3.94,0,0,0-3.1-1h-3.63V89.55Zm4.45-15.44h3.55a4.32,4.32,0,0,0,3.27-1.21,4.55,4.55,0,0,0,1.17-3.31q0-4.53-4.21-4.53h-3.78Z" transform="translate(-8.34 -10.75)"/><path class="cls-3" d="M376.47,89.55V61.71h6.94l4.91,20.63h.08l4.84-20.63H400V89.55h-4.21V66.39l-5.67,23.16h-3.79l-5.67-23.16V89.55Z" transform="translate(-8.34 -10.75)"/><path class="cls-3" d="M405.13,89.55V61.71h15.06v3.74H409.58v7.72h10v3.75h-10v8.89H420.5v3.74Z" transform="translate(-8.34 -10.75)"/><path class="cls-3" d="M424.28,89.55V61.71h9.83a7.17,7.17,0,0,1,5,1.64,7,7,0,0,1,2.07,5.53A8.23,8.23,0,0,1,440,73.45a4.89,4.89,0,0,1-3.47,2.26v.08q4.17.42,4.36,5.69c0,1.33.08,3.21.16,5.66a2.85,2.85,0,0,0,1.33,2.41h-5a4.79,4.79,0,0,1-.75-2.45c0-.31-.09-2.07-.19-5.27a5.35,5.35,0,0,0-1-3.35,3.91,3.91,0,0,0-3.1-1h-3.62V89.55Zm4.45-15.44h3.55a4.32,4.32,0,0,0,3.27-1.21,4.55,4.55,0,0,0,1.17-3.31q0-4.53-4.21-4.53h-3.78Z" transform="translate(-8.34 -10.75)"/><path class="cls-4" d="M464.75,89.55V61.71h8.82A7.38,7.38,0,0,1,479.42,64a8.63,8.63,0,0,1,1.83,5.85,8.31,8.31,0,0,1-2.14,6,8,8,0,0,1-6,2.22h-3.9v11.5Zm4.45-24.49V74.7h3.16q4.44,0,4.44-4.8t-4.75-4.84Z" transform="translate(-8.34 -10.75)"/><path class="cls-4" d="M485.19,89.55V61.71H495a7.18,7.18,0,0,1,5,1.64,7,7,0,0,1,2.07,5.53,8.23,8.23,0,0,1-1.17,4.57,4.91,4.91,0,0,1-3.48,2.26v.08c2.79.28,4.24,2.18,4.37,5.69,0,1.33.08,3.21.16,5.66a2.85,2.85,0,0,0,1.33,2.41h-5a4.9,4.9,0,0,1-.74-2.45c0-.31-.09-2.07-.19-5.27a5.35,5.35,0,0,0-1-3.35,3.93,3.93,0,0,0-3.1-1h-3.62V89.55Zm4.45-15.44h3.54a4.33,4.33,0,0,0,3.28-1.21,4.55,4.55,0,0,0,1.17-3.31q0-4.53-4.21-4.53h-3.78Z" transform="translate(-8.34 -10.75)"/><path class="cls-4" d="M507.18,89.55V61.71h15.06v3.74H511.63v7.72h10v3.75h-10v8.89h10.92v3.74Zm5.43-29.4L515,54.53h4.68l-4.14,5.62Z" transform="translate(-8.34 -10.75)"/><path class="cls-4" d="M531.91,89.55l-6.55-27.84h4.72l4.72,22.23h.07l5-22.23h4.72l-7,27.84Z" transform="translate(-8.34 -10.75)"/><path class="cls-4" d="M548.1,89.55V61.71h15v3.74H552.54v7.72h10v3.75h-10v8.89h10.92v3.74Z" transform="translate(-8.34 -10.75)"/><path class="cls-4" d="M567.63,89.55V61.71h5.46l8.12,20.75V61.71h4.21V89.55H580l-8.12-21.29V89.55Z" transform="translate(-8.34 -10.75)"/><path class="cls-4" d="M590.8,89.55V61.71h4.44V89.55Z" transform="translate(-8.34 -10.75)"/><path class="cls-4" d="M600.59,89.55V61.71h9.83a7.2,7.2,0,0,1,5,1.64c1.38,1.22,2.06,3.07,2.06,5.53a8.23,8.23,0,0,1-1.17,4.57,4.87,4.87,0,0,1-3.47,2.26v.08c2.79.28,4.24,2.18,4.37,5.69,0,1.33.08,3.21.16,5.66a2.87,2.87,0,0,0,1.32,2.41h-5a4.9,4.9,0,0,1-.74-2.45c0-.31-.09-2.07-.19-5.27a5.41,5.41,0,0,0-1-3.35,3.93,3.93,0,0,0-3.1-1H605V89.55ZM605,74.11h3.55a4.33,4.33,0,0,0,3.28-1.21A4.55,4.55,0,0,0,613,69.59c0-3-1.41-4.53-4.21-4.53H605Z" transform="translate(-8.34 -10.75)"/><g class="cls-5"><path class="cls-6" d="M87.06,76.46c-3.55,7.8-4.8,14.87-2.79,15.78s6.5-4.68,10-12.49S96.59,63.92,97.1,64a34.68,34.68,0,0,0-10,12.5" transform="translate(-8.34 -10.75)"/><path class="cls-7" d="M267.57,76.46c-3.55,7.8-4.8,14.87-2.79,15.78s6.5-4.68,10-12.49,2.28-15.83,2.8-15.79a34.65,34.65,0,0,0-10.05,12.5" transform="translate(-8.34 -10.75)"/><path class="cls-8" d="M449.89,76.46c-3.54,7.8-4.79,14.87-2.79,15.78s6.5-4.68,10-12.49,2.28-15.83,2.79-15.79a34.76,34.76,0,0,0-10.05,12.5" transform="translate(-8.34 -10.75)"/></g><path class="cls-4" d="M85.09,56.37V43.16h1.63V54.92h5.36v1.45Z" transform="translate(-8.34 -10.75)"/><path class="cls-4" d="M93.93,56.37V43.16h6.83V44.6h-5.2v4.14h4.9v1.45h-4.9v4.73H101v1.45Z" transform="translate(-8.34 -10.75)"/><path class="cls-4" d="M107.68,56.37V43.16H112a3.39,3.39,0,0,1,2.48.88,3.19,3.19,0,0,1,.91,2.43q0,2.84-2,3.33v0a1.86,1.86,0,0,1,1.33.71,2.4,2.4,0,0,1,.54,1.49l.11,2.25c0,1.13.29,1.82.71,2.08h-2a3.49,3.49,0,0,1-.44-1.91l-.11-2.05a2.07,2.07,0,0,0-.7-1.65,2.3,2.3,0,0,0-1.26-.28h-2.2v5.89Zm1.63-11.88v4.66h1.61a3.64,3.64,0,0,0,1.72-.31,2.38,2.38,0,0,0,1-2.24,2,2,0,0,0-.63-1.55,2.58,2.58,0,0,0-1.76-.56Z" transform="translate(-8.34 -10.75)"/><path class="cls-4" d="M117.85,56.37V43.16h6.83V44.6h-5.2v4.14h4.9v1.45h-4.9v4.73h5.42v1.45Zm2.52-13.93,1.29-2.63h1.82l-2,2.63Z" transform="translate(-8.34 -10.75)"/><path class="cls-4" d="M134.12,46.58h-1.63c0-1.57-.69-2.35-2.06-2.35a1.92,1.92,0,0,0-2.18,2.15,2.34,2.34,0,0,0,1.61,2.22l3,1.14a3.18,3.18,0,0,1,1.61,3,3.64,3.64,0,0,1-1.35,3.11,4.52,4.52,0,0,1-2.76.82,3.91,3.91,0,0,1-3.17-1.15,5.18,5.18,0,0,1-.83-3.26H128a4.6,4.6,0,0,0,.35,2.09,2.2,2.2,0,0,0,2.13,1,2.25,2.25,0,0,0,1.64-.64,2.32,2.32,0,0,0,.65-1.69,2.38,2.38,0,0,0-1.61-2.25l-3-1.17a3.23,3.23,0,0,1-1.61-3,3.73,3.73,0,0,1,.68-2.27,3.65,3.65,0,0,1,3.19-1.37Q134.07,42.9,134.12,46.58Z" transform="translate(-8.34 -10.75)"/><path class="cls-4" d="M136.67,56.37V43.16h6.82V44.6H138.3v4.14h4.9v1.45h-4.9v4.73h5.42v1.45Z" transform="translate(-8.34 -10.75)"/><path class="cls-4" d="M145.05,56.37l3.81-13.21H151l3.55,13.21h-1.7L152,52.74h-4.22l-1,3.63ZM149.9,45l-1.84,6.38h3.56L149.93,45Z" transform="translate(-8.34 -10.75)"/><path class="cls-4" d="M155.83,52.44V43.16h1.63v9.28a3.59,3.59,0,0,0,.53,2.17,2.5,2.5,0,0,0,3.49-.06,3.59,3.59,0,0,0,.48-2.11V43.16h1.63v9.28a4.45,4.45,0,0,1-1,3,3.7,3.7,0,0,1-2.92,1.15Q155.83,56.63,155.83,52.44Z" transform="translate(-8.34 -10.75)"/><path class="cls-4" d="M170.91,56.37V43.16h3.54c1.87,0,3.15.64,3.84,1.94a10.26,10.26,0,0,1,.78,4.66q0,6.62-4.46,6.61Zm1.63-11.88V55h1.7a2.63,2.63,0,0,0,2.63-1.74,9.6,9.6,0,0,0,.5-3.51,10.45,10.45,0,0,0-.45-3.61,2.63,2.63,0,0,0-2.68-1.68Z" transform="translate(-8.34 -10.75)"/><path class="cls-4" d="M181.49,56.37V43.16h6.83V44.6h-5.2v4.14H188v1.45h-4.9v4.73h5.42v1.45Z" transform="translate(-8.34 -10.75)"/><path class="cls-4" d="M195.24,56.37V43.16h3.37a5.23,5.23,0,0,1,2.47.48A3.4,3.4,0,0,1,202.69,47a3.71,3.71,0,0,1-1,2.82,3.84,3.84,0,0,1-2.77,1h-2v5.59Zm1.63-11.88v5h1.94a2,2,0,0,0,1.56-.66,2.66,2.66,0,0,0,.62-1.91c0-1.59-.76-2.39-2.29-2.39Z" transform="translate(-8.34 -10.75)"/><path class="cls-4" d="M204.54,56.37V43.16h4.28a3.4,3.4,0,0,1,2.48.88,3.22,3.22,0,0,1,.9,2.43c0,1.89-.68,3-2,3.33v0a1.88,1.88,0,0,1,1.33.71A2.52,2.52,0,0,1,212,52l.11,2.25c0,1.13.28,1.82.7,2.08h-2a3.49,3.49,0,0,1-.44-1.91l-.12-2.05a2,2,0,0,0-.7-1.65,2.3,2.3,0,0,0-1.26-.28h-2.2v5.89Zm1.63-11.88v4.66h1.61a3.61,3.61,0,0,0,1.72-.31,2.36,2.36,0,0,0,1-2.24,2,2,0,0,0-.63-1.55,2.56,2.56,0,0,0-1.76-.56Z" transform="translate(-8.34 -10.75)"/><path class="cls-4" d="M214.72,56.37V43.16h6.83V44.6h-5.2v4.14h4.9v1.45h-4.9v4.73h5.42v1.45Zm2.51-13.93,1.3-2.63h1.81l-2,2.63Z" transform="translate(-8.34 -10.75)"/><path class="cls-4" d="M226.3,56.37l-3.22-13.21h1.7l2.59,11.34h0L230,43.16h1.7l-3.33,13.21Z" transform="translate(-8.34 -10.75)"/><path class="cls-4" d="M233.44,56.37V43.16h6.83V44.6h-5.2v4.14H240v1.45h-4.9v4.73h5.42v1.45Z" transform="translate(-8.34 -10.75)"/><path class="cls-4" d="M242.49,56.37V43.16h2.12l4.39,11v-11h1.63V56.37h-2.25l-4.26-10.7v10.7Z" transform="translate(-8.34 -10.75)"/><path class="cls-4" d="M257.45,44.6V56.37h-1.62V44.6h-3.32V43.16h8.27V44.6Z" transform="translate(-8.34 -10.75)"/><path class="cls-4" d="M262.63,56.37V43.16h1.63V56.37Z" transform="translate(-8.34 -10.75)"/><path class="cls-4" d="M270.88,42.9a3.57,3.57,0,0,1,3.5,2.18,11.38,11.38,0,0,1,.76,4.68,11.31,11.31,0,0,1-.76,4.68,3.88,3.88,0,0,1-7,0,11.31,11.31,0,0,1-.76-4.68,11.38,11.38,0,0,1,.76-4.68A3.56,3.56,0,0,1,270.88,42.9Zm0,1.33a2.13,2.13,0,0,0-2.12,1.63,12.54,12.54,0,0,0-.43,3.9,12.66,12.66,0,0,0,.43,3.91,2.2,2.2,0,0,0,4.25,0,12.66,12.66,0,0,0,.43-3.91,12.54,12.54,0,0,0-.43-3.9A2.13,2.13,0,0,0,270.88,44.23Z" transform="translate(-8.34 -10.75)"/><path class="cls-4" d="M277.56,56.37V43.16h2.12l4.4,11v-11h1.62V56.37h-2.25l-4.26-10.7v10.7Z" transform="translate(-8.34 -10.75)"/><path class="cls-4" d="M293.18,56.37V43.16h3.53c1.87,0,3.16.64,3.85,1.94a10.26,10.26,0,0,1,.78,4.66q0,6.62-4.46,6.61Zm1.63-11.88V55h1.7a2.62,2.62,0,0,0,2.62-1.74,9.39,9.39,0,0,0,.5-3.51,10.76,10.76,0,0,0-.44-3.61,2.64,2.64,0,0,0-2.68-1.68Z" transform="translate(-8.34 -10.75)"/><path class="cls-4" d="M303.76,56.37V43.16h6.83V44.6h-5.2v4.14h4.9v1.45h-4.9v4.73h5.42v1.45Z" transform="translate(-8.34 -10.75)"/><path class="cls-4" d="M320,46.58h-1.63c0-1.57-.68-2.35-2.05-2.35a1.91,1.91,0,0,0-2.18,2.15,2.32,2.32,0,0,0,1.61,2.22l3,1.14a3.18,3.18,0,0,1,1.61,3A3.64,3.64,0,0,1,319,55.81a4.52,4.52,0,0,1-2.76.82,3.89,3.89,0,0,1-3.16-1.15,5.12,5.12,0,0,1-.83-3.26h1.63a4.46,4.46,0,0,0,.35,2.09,2.17,2.17,0,0,0,2.12,1,2.24,2.24,0,0,0,1.64-.64,2.28,2.28,0,0,0,.66-1.69,2.39,2.39,0,0,0-1.61-2.25l-3-1.17a3.23,3.23,0,0,1-1.61-3,3.67,3.67,0,0,1,.69-2.27,3.62,3.62,0,0,1,3.18-1.37Q320,42.9,320,46.58Z" transform="translate(-8.34 -10.75)"/><path class="cls-4" d="M333.58,51.83h1.7q-.27,4.8-4,4.8a3.58,3.58,0,0,1-3.54-2.19,11.73,11.73,0,0,1-.72-4.68,11.55,11.55,0,0,1,.76-4.68,3.58,3.58,0,0,1,3.5-2.18q3.8,0,3.9,4.1h-1.7c-.05-1.84-.78-2.77-2.2-2.77a2.13,2.13,0,0,0-2.13,1.63,12.93,12.93,0,0,0-.42,3.9,13.05,13.05,0,0,0,.42,3.91,2.13,2.13,0,0,0,2.13,1.62,1.91,1.91,0,0,0,1.88-1.12A6.2,6.2,0,0,0,333.58,51.83Z" transform="translate(-8.34 -10.75)"/><path class="cls-4" d="M337.32,56.37V43.16h4.27a3.39,3.39,0,0,1,2.48.88,3.23,3.23,0,0,1,.91,2.43q0,2.84-2,3.33v0a1.86,1.86,0,0,1,1.33.71,2.4,2.4,0,0,1,.54,1.49l.11,2.25c.05,1.13.28,1.82.7,2.08h-2a3.49,3.49,0,0,1-.44-1.91l-.11-2.05a2.07,2.07,0,0,0-.71-1.65,2.29,2.29,0,0,0-1.25-.28H339v5.89ZM339,44.49v4.66h1.61a3.64,3.64,0,0,0,1.72-.31,2.37,2.37,0,0,0,1-2.24,2,2,0,0,0-.63-1.55,2.54,2.54,0,0,0-1.75-.56Z" transform="translate(-8.34 -10.75)"/><path class="cls-4" d="M347.44,56.37V43.16h1.62V56.37Z" transform="translate(-8.34 -10.75)"/><path class="cls-4" d="M359,46.58h-1.63c0-1.57-.68-2.35-2.05-2.35a1.91,1.91,0,0,0-2.18,2.15,2.32,2.32,0,0,0,1.61,2.22l3,1.14a3.18,3.18,0,0,1,1.61,3A3.64,3.64,0,0,1,358,55.81a4.52,4.52,0,0,1-2.76.82,3.89,3.89,0,0,1-3.16-1.15,5.12,5.12,0,0,1-.83-3.26h1.63a4.46,4.46,0,0,0,.35,2.09,2.17,2.17,0,0,0,2.12,1,2.24,2.24,0,0,0,1.64-.64,2.28,2.28,0,0,0,.66-1.69A2.39,2.39,0,0,0,356,50.71l-3-1.17a3.23,3.23,0,0,1-1.61-3,3.67,3.67,0,0,1,.69-2.27,3.62,3.62,0,0,1,3.18-1.37Q358.92,42.9,359,46.58Z" transform="translate(-8.34 -10.75)"/><path class="cls-4" d="M361.53,56.37V43.16h6.83V44.6h-5.2v4.14h4.9v1.45h-4.9v4.73h5.42v1.45Z" transform="translate(-8.34 -10.75)"/><path class="cls-4" d="M377.8,46.58h-1.63c0-1.57-.69-2.35-2.06-2.35a1.92,1.92,0,0,0-2.18,2.15,2.34,2.34,0,0,0,1.61,2.22l3,1.14a3.18,3.18,0,0,1,1.61,3,3.62,3.62,0,0,1-1.36,3.11,4.47,4.47,0,0,1-2.75.82,3.91,3.91,0,0,1-3.17-1.15,5.18,5.18,0,0,1-.83-3.26h1.63a4.6,4.6,0,0,0,.35,2.09,2.2,2.2,0,0,0,2.13,1,2.25,2.25,0,0,0,1.64-.64,2.32,2.32,0,0,0,.65-1.69,2.38,2.38,0,0,0-1.61-2.25l-3-1.17a3.23,3.23,0,0,1-1.61-3,3.73,3.73,0,0,1,.68-2.27,3.65,3.65,0,0,1,3.19-1.37C376.52,42.9,377.76,44.13,377.8,46.58Z" transform="translate(-8.34 -10.75)"/><path class="cls-4" d="M383.75,56.37l3.81-13.21h2.19l3.55,13.21h-1.7l-1-3.63h-4.22l-1,3.63ZM388.6,45l-1.83,6.38h3.55L388.64,45Z" transform="translate(-8.34 -10.75)"/><path class="cls-4" d="M395,56.37V43.16h1.63V54.92H402v1.45Z" transform="translate(-8.34 -10.75)"/><path class="cls-4" d="M403.77,56.37V43.16h1.63V56.37Z" transform="translate(-8.34 -10.75)"/><path class="cls-4" d="M408,56.37V43.16h2.74l2.65,10.47h0l2.65-10.47h2.74V56.37h-1.63V44.82l-3,11.55h-1.65l-2.95-11.55V56.37Z" transform="translate(-8.34 -10.75)"/><path class="cls-4" d="M421.57,56.37V43.16h6.82V44.6h-5.2v4.14h4.91v1.45h-4.91v4.73h5.42v1.45Z" transform="translate(-8.34 -10.75)"/><path class="cls-4" d="M430.61,56.37V43.16h2.12l4.39,11v-11h1.63V56.37H436.5l-4.26-10.7v10.7Z" transform="translate(-8.34 -10.75)"/><path class="cls-4" d="M445.58,44.6V56.37H444V44.6h-3.31V43.16h8.27V44.6Z" transform="translate(-8.34 -10.75)"/><path class="cls-4" d="M448.41,56.37l3.81-13.21h2.18L458,56.37h-1.71l-.94-3.63h-4.22l-1,3.63ZM453.26,45l-1.84,6.38H455L453.29,45Z" transform="translate(-8.34 -10.75)"/><path class="cls-4" d="M459.58,56.37V43.16h1.63V56.37Z" transform="translate(-8.34 -10.75)"/><path class="cls-4" d="M463.88,56.37V43.16h4.27a3.4,3.4,0,0,1,2.48.88,3.22,3.22,0,0,1,.9,2.43c0,1.89-.67,3-2,3.33v0a1.88,1.88,0,0,1,1.33.71,2.52,2.52,0,0,1,.54,1.49l.11,2.25c0,1.13.28,1.82.7,2.08h-2a3.49,3.49,0,0,1-.44-1.91l-.11-2.05a2.07,2.07,0,0,0-.71-1.65,2.3,2.3,0,0,0-1.26-.28h-2.2v5.89Zm1.62-11.88v4.66h1.61a3.61,3.61,0,0,0,1.72-.31,2.36,2.36,0,0,0,1-2.24,2,2,0,0,0-.63-1.55,2.55,2.55,0,0,0-1.75-.56Z" transform="translate(-8.34 -10.75)"/><path class="cls-4" d="M474.05,56.37V43.16h6.83V44.6h-5.2v4.14h4.9v1.45h-4.9v4.73h5.42v1.45Z" transform="translate(-8.34 -10.75)"/><path class="cls-4" d="M490.31,46.58h-1.63c0-1.57-.68-2.35-2.05-2.35a1.92,1.92,0,0,0-2.18,2.15,2.32,2.32,0,0,0,1.61,2.22l3,1.14a3.18,3.18,0,0,1,1.61,3,3.64,3.64,0,0,1-1.35,3.11,4.52,4.52,0,0,1-2.76.82,3.9,3.9,0,0,1-3.16-1.15,5.18,5.18,0,0,1-.83-3.26h1.63a4.46,4.46,0,0,0,.35,2.09,2.62,2.62,0,0,0,3.76.34A2.28,2.28,0,0,0,489,53a2.39,2.39,0,0,0-1.61-2.25l-3-1.17a3.22,3.22,0,0,1-1.6-3,3.66,3.66,0,0,1,.68-2.27,3.62,3.62,0,0,1,3.18-1.37Q490.26,42.9,490.31,46.58Z" transform="translate(-8.34 -10.75)"/><g class="cls-9"><path class="cls-4" d="M8.34,95.82H9.45l.37,1.74c.06.37.1.74.16,1.12h0c.07-.38.13-.76.22-1.12l.42-1.74h1L12,97.56c.09.37.16.74.24,1.12h0c.07-.38.1-.75.17-1.12l.36-1.74h1L13,99.58H11.66l-.34-1.5c-.08-.35-.14-.7-.2-1.1h0c-.06.4-.12.75-.18,1.1l-.34,1.5H9.28Z" transform="translate(-8.34 -10.75)"/><path class="cls-4" d="M14.36,95.82h1.11l.37,1.74c.06.37.1.74.16,1.12h0c.07-.38.13-.76.23-1.12l.41-1.74h1l.42,1.74c.09.37.16.74.24,1.12h0c.07-.38.11-.75.17-1.12l.36-1.74h1L19,99.58H17.68l-.34-1.5c-.07-.35-.14-.7-.2-1.1h0l-.19,1.1-.34,1.5H15.31Z" transform="translate(-8.34 -10.75)"/><path class="cls-4" d="M20.39,95.82h1.1l.37,1.74c.06.37.11.74.17,1.12h0c.07-.38.13-.76.22-1.12l.41-1.74h1l.43,1.74c.09.37.15.74.23,1.12h0c.07-.38.11-.75.18-1.12l.35-1.74h1L25,99.58h-1.3l-.35-1.5c-.07-.35-.13-.7-.2-1.1h0c-.07.4-.12.75-.19,1.1l-.34,1.5H21.33Z" transform="translate(-8.34 -10.75)"/><path class="cls-4" d="M26.41,99a.68.68,0,1,1,.67.7.67.67,0,0,1-.67-.7" transform="translate(-8.34 -10.75)"/><path class="cls-4" d="M28.85,96.69h-.51v-.83l.51,0v-.2a1.28,1.28,0,0,1,1.39-1.45,2.31,2.31,0,0,1,.75.13l-.21.82a1.33,1.33,0,0,0-.38-.07c-.28,0-.44.15-.44.54v.23h.68v.87H30v2.89H28.85Z" transform="translate(-8.34 -10.75)"/><path class="cls-4" d="M31.05,97.7a1.84,1.84,0,1,1,1.84,2,1.85,1.85,0,0,1-1.84-2m2.53,0c0-.65-.24-1.07-.69-1.07s-.7.42-.7,1.07.23,1.07.7,1.07.69-.42.69-1.07" transform="translate(-8.34 -10.75)"/><path class="cls-4" d="M35.3,97.7a1.84,1.84,0,1,1,1.84,2,1.85,1.85,0,0,1-1.84-2m2.53,0c0-.65-.24-1.07-.69-1.07s-.69.42-.69,1.07.22,1.07.69,1.07.69-.42.69-1.07" transform="translate(-8.34 -10.75)"/><path class="cls-4" d="M39.58,97.7a1.76,1.76,0,0,1,1.57-2,1.21,1.21,0,0,1,.92.39l0-.58V94.26h1.12v5.32h-.92l-.07-.37h0a1.49,1.49,0,0,1-1,.47c-.93,0-1.54-.75-1.54-2m2.45.72V96.88a.9.9,0,0,0-.62-.24c-.36,0-.68.33-.68,1s.25,1.08.68,1.08a.7.7,0,0,0,.62-.34" transform="translate(-8.34 -10.75)"/><rect class="cls-4" x="35.75" y="86.51" width="1.87" height="0.79"/><path class="cls-4" d="M46.51,99.15l.5-.7a1.61,1.61,0,0,0,1,.4c.34,0,.48-.13.48-.32s-.38-.37-.77-.52-1-.49-1-1.11.57-1.18,1.44-1.18a2.19,2.19,0,0,1,1.33.48l-.5.67a1.36,1.36,0,0,0-.8-.32c-.29,0-.42.11-.42.3s.35.33.73.48,1,.44,1,1.13S49,99.67,48,99.67a2.44,2.44,0,0,1-1.44-.52" transform="translate(-8.34 -10.75)"/><path class="cls-4" d="M50,97.7a1.86,1.86,0,0,1,1.78-2,1.59,1.59,0,0,1,1.6,1.81,2.85,2.85,0,0,1,0,.5H51.1a.91.91,0,0,0,1,.79,1.48,1.48,0,0,0,.81-.25l.38.68a2.44,2.44,0,0,1-1.34.42,1.83,1.83,0,0,1-1.91-2m2.43-.41c0-.42-.18-.71-.63-.71a.74.74,0,0,0-.73.71Z" transform="translate(-8.34 -10.75)"/><path class="cls-4" d="M54,97.7a1.9,1.9,0,0,1,2-2,1.65,1.65,0,0,1,1.1.41l-.52.72a.81.81,0,0,0-.51-.22c-.54,0-.88.42-.88,1.07s.35,1.07.84,1.07a1.19,1.19,0,0,0,.68-.27l.44.73a1.93,1.93,0,0,1-1.25.44,1.81,1.81,0,0,1-1.86-2" transform="translate(-8.34 -10.75)"/><path class="cls-4" d="M57.72,98.16V95.82h1.12V98c0,.54.14.72.47.72s.45-.13.67-.42V95.82H61.1v3.76h-.92l-.08-.52h0a1.47,1.47,0,0,1-1.19.61c-.82,0-1.17-.57-1.17-1.51" transform="translate(-8.34 -10.75)"/><path class="cls-4" d="M62.1,95.82H63l.08.66h0a1.26,1.26,0,0,1,1.07-.76,1,1,0,0,1,.45.08l-.19,1A1.3,1.3,0,0,0,64,96.7a1,1,0,0,0-.83.7v2.18H62.1Z" transform="translate(-8.34 -10.75)"/><path class="cls-4" d="M65.09,94.68a.65.65,0,1,1,.65.58.59.59,0,0,1-.65-.58m.09,1.14H66.3v3.76H65.18Z" transform="translate(-8.34 -10.75)"/><path class="cls-4" d="M67.45,98.22V96.69h-.52v-.83l.58,0,.13-1h.93v1h.9v.87h-.9V98.2c0,.43.19.6.48.6a1.28,1.28,0,0,0,.36-.07l.18.81a2.84,2.84,0,0,1-.84.13c-.93,0-1.3-.58-1.3-1.45" transform="translate(-8.34 -10.75)"/><path class="cls-4" d="M70.23,101l.2-.85a.92.92,0,0,0,.25.05.64.64,0,0,0,.66-.5l0-.2-1.45-3.66h1.13l.53,1.61c.11.35.2.7.3,1.07h0c.08-.35.17-.71.26-1.07l.46-1.61h1.07l-1.31,3.8c-.36.95-.76,1.44-1.65,1.44a1.56,1.56,0,0,1-.53-.08" transform="translate(-8.34 -10.75)"/><path class="cls-4" d="M74,99a.67.67,0,0,1,.67-.71A.71.71,0,1,1,74,99" transform="translate(-8.34 -10.75)"/><path class="cls-4" d="M76.33,95.82h.92l.07.47h0a1.76,1.76,0,0,1,1.21-.57c.82,0,1.17.58,1.17,1.52v2.34H78.61V97.39c0-.55-.14-.72-.46-.72a.94.94,0,0,0-.7.37v2.54H76.33Z" transform="translate(-8.34 -10.75)"/><path class="cls-4" d="M80.5,97.7a1.85,1.85,0,0,1,1.77-2,1.6,1.6,0,0,1,1.61,1.81,2.66,2.66,0,0,1,0,.5H81.57a.91.91,0,0,0,1,.79,1.51,1.51,0,0,0,.82-.25l.37.68a2.44,2.44,0,0,1-1.34.42,1.82,1.82,0,0,1-1.9-2m2.43-.41c0-.42-.19-.71-.63-.71a.74.74,0,0,0-.73.71Z" transform="translate(-8.34 -10.75)"/><path class="cls-4" d="M84.86,98.22V96.69h-.52v-.83l.58,0,.13-1H86v1h.91v.87H86V98.2c0,.43.19.6.49.6a1.35,1.35,0,0,0,.36-.07l.17.81a2.78,2.78,0,0,1-.84.13c-.93,0-1.29-.58-1.29-1.45" transform="translate(-8.34 -10.75)"/><path class="cls-10" d="M54.08,36.44c0,14.19-2.95,25.69-6.59,25.69S40.9,50.63,40.9,36.44,48.29,11,47.49,10.75a57.35,57.35,0,0,1,6.59,25.69" transform="translate(-8.34 -10.75)"/><path class="cls-11" d="M40.81,53.25c4.16,9.17,5.62,17.46,3.27,18.52S36.45,66.28,32.3,57.12,29.62,38.54,29,38.6A40.63,40.63,0,0,1,40.81,53.25" transform="translate(-8.34 -10.75)"/><path class="cls-4" d="M54,53.25c-4.16,9.17-5.63,17.46-3.28,18.52s7.63-5.49,11.79-14.65S65.2,38.54,65.8,38.6A40.63,40.63,0,0,0,54,53.25" transform="translate(-8.34 -10.75)"/><path class="cls-4" d="M31,90.05c-.46-.83-.67-1.17-1.32-2.16A19.69,19.69,0,0,0,27,84.25a1.83,1.83,0,0,0-1.43-.65v6.45H23.32V75.48h4.45a5.45,5.45,0,0,1,3.75,1,4,4,0,0,1-2.83,7,6.73,6.73,0,0,1,1.38,1.36c.33.4.81,1,1.34,1.79.69,1,2,2.9,2.3,3.37ZM29.13,77.42a5.77,5.77,0,0,0-1.94-.27H25.53v5.07h1.55a3.89,3.89,0,0,0,2.74-.7,2.57,2.57,0,0,0,.78-2,2.23,2.23,0,0,0-1.47-2.14" transform="translate(-8.34 -10.75)"/><path class="cls-4" d="M45,83.45a5.18,5.18,0,0,1-3.34.89H39v5.71H36.8V75.47H41c2.05,0,2.93.19,3.78.68a3.93,3.93,0,0,1,2.1,3.55A4.12,4.12,0,0,1,45,83.45m-1.31-5.59a3.76,3.76,0,0,0-2.58-.71H39v5.54H41.5a2.72,2.72,0,0,0,2.28-.83,2.75,2.75,0,0,0,.67-1.92,2.61,2.61,0,0,0-.78-2.08" transform="translate(-8.34 -10.75)"/><path class="cls-4" d="M55.19,90.26a6.25,6.25,0,0,1-4.93-2.18,7.82,7.82,0,0,1-1.73-5.2,8.73,8.73,0,0,1,1-4.34,6.46,6.46,0,0,1,5.71-3.34,6.56,6.56,0,0,1,3.89,1.14l-1.08,1.33a4.74,4.74,0,0,0-2.81-.84,3.84,3.84,0,0,0-3.53,2.09A8.15,8.15,0,0,0,51,82.83a7.76,7.76,0,0,0,.58,3.43,4.06,4.06,0,0,0,3.89,2.37,4.65,4.65,0,0,0,2.93-.91l1.08,1.33a7.69,7.69,0,0,1-4.28,1.21" transform="translate(-8.34 -10.75)"/><path class="cls-4" d="M71.18,90l-1.41-4.12h-5.5L62.88,90h-2.3l5.21-14.59h2.76L73.67,90Zm-4-12.56H67c-.23.83-1.91,6-2.19,6.75h4.47c-.28-.68-1.94-5.9-2.14-6.75" transform="translate(-8.34 -10.75)"/></g></svg>