<?xml version="1.0" encoding="utf-8"?>
<!-- Generator: Adobe Illustrator 15.1.0, SVG Export Plug-In . SVG Version: 6.00 Build 0)  -->
<!DOCTYPE svg PUBLIC "-//W3C//DTD SVG 1.1//EN" "http://www.w3.org/Graphics/SVG/1.1/DTD/svg11.dtd" [
	<!ENTITY ns_flows "http://ns.adobe.com/Flows/1.0/">
	<!ENTITY ns_extend "http://ns.adobe.com/Extensibility/1.0/">
	<!ENTITY ns_ai "http://ns.adobe.com/AdobeIllustrator/10.0/">
	<!ENTITY ns_graphs "http://ns.adobe.com/Graphs/1.0/">
]>
<svg version="1.1" id="Calque_1" xmlns:x="&ns_extend;" xmlns:i="&ns_ai;" xmlns:graph="&ns_graphs;"
	 xmlns="http://www.w3.org/2000/svg" xmlns:xlink="http://www.w3.org/1999/xlink" xmlns:a="http://ns.adobe.com/AdobeSVGViewerExtensions/3.0/"
	 x="0px" y="0px" width="226px" height="308px" viewBox="0 0 226 308" enable-background="new 0 0 226 308" xml:space="preserve">
<g>
	<defs>
		<rect id="SVGID_1_" x="-305" y="-427.55" width="841.89" height="1190.55"/>
	</defs>
	<clipPath id="SVGID_2_">
		<use xlink:href="#SVGID_1_"  overflow="visible"/>
	</clipPath>
</g>
<g>
	<defs>
		<rect id="SVGID_3_" x="-305" y="-427.55" width="841.89" height="1190.55"/>
	</defs>
	<clipPath id="SVGID_4_">
		<use xlink:href="#SVGID_3_"  overflow="visible"/>
	</clipPath>
	<path clip-path="url(#SVGID_4_)" fill="#72A960" d="M135.334,100.973c0,49.254-10.242,89.185-22.878,89.185
		s-22.878-39.931-22.878-89.185c0-49.256,25.666-88.203,22.878-89.187C112.456,11.786,135.334,51.717,135.334,100.973"/>
	<path clip-path="url(#SVGID_4_)" fill="#C3BF00" d="M89.25,159.352c14.441,31.812,19.534,60.605,11.373,64.309
		c-8.16,3.705-26.482-19.08-40.926-50.895c-14.441-31.813-9.285-64.492-11.373-64.31C48.324,108.456,74.809,127.537,89.25,159.352"
		/>
	<path clip-path="url(#SVGID_4_)" fill="#148B29" d="M135.097,159.352c-14.441,31.812-19.534,60.605-11.374,64.309
		c8.161,3.705,26.485-19.08,40.927-50.895c14.439-31.813,9.283-64.492,11.373-64.31
		C176.022,108.456,149.538,127.537,135.097,159.352"/>
	<path clip-path="url(#SVGID_4_)" fill="#148B29" d="M55.261,287.1c-1.601-2.863-2.319-4.038-4.56-7.489
		c-4.24-6.462-5.601-8.591-9.521-12.63c-1.439-1.468-2.641-2.203-4.959-2.275V287.1h-7.682v-50.591H43.98
		c6.561,0,10.4,1.395,13.04,3.672c2.479,2.128,4.88,5.507,4.88,10.426c0,7.857-5.52,14.171-14.72,13.878
		c2.56,1.909,3.84,3.524,4.8,4.699c1.12,1.396,2.801,3.598,4.641,6.241c2.399,3.451,6.879,10.059,8,11.675H55.261z M48.701,243.264
		c-1.601-0.587-3.84-0.955-6.721-0.955h-5.76v17.624h5.359c4.881,0,7.601-0.735,9.521-2.424c1.681-1.468,2.72-3.892,2.72-6.829
		C53.82,247.155,51.74,244.365,48.701,243.264"/>
	<path clip-path="url(#SVGID_4_)" fill="#148B29" d="M103.746,264.19c-2.801,1.982-5.761,3.085-11.601,3.085h-9.12v19.825h-7.68
		v-50.592h14.72c7.12,0,10.16,0.66,13.12,2.35c4.72,2.717,7.279,6.976,7.279,12.336C110.465,256.921,108.625,260.74,103.746,264.19
		 M99.186,244.807c-1.92-1.689-4.641-2.497-8.96-2.497h-7.2v19.237h8.639c3.762,0,6.162-0.807,7.922-2.863
		c1.52-1.763,2.319-3.818,2.319-6.682C101.905,248.771,101.025,246.421,99.186,244.807"/>
	<path clip-path="url(#SVGID_4_)" fill="#148B29" d="M139.187,287.834c-7.2,0-12.96-2.717-17.12-7.562
		c-3.92-4.626-6-10.723-6-18.064c0-5.875,1.279-10.94,3.599-15.053c4.081-7.195,11.361-11.601,19.841-11.601
		c5.201,0,10.08,1.395,13.521,3.965l-3.759,4.627c-3.04-2.058-6.081-2.938-9.762-2.938c-5.439,0-9.68,2.57-12.239,7.271
		c-1.761,3.229-2.642,7.488-2.642,13.584c0,5.652,0.642,8.957,2,11.895c2.562,5.58,7.682,8.224,13.521,8.224
		c4.239,0,7.201-1.028,10.161-3.158l3.759,4.626C149.827,286.438,144.787,287.834,139.187,287.834"/>
	<path clip-path="url(#SVGID_4_)" fill="#148B29" d="M194.709,287.101l-4.879-14.319h-19.121l-4.801,14.319h-8l18.08-50.665h9.601
		l17.761,50.665H194.709z M180.709,243.484h-0.48c-0.8,2.864-6.64,21-7.6,23.423h15.52
		C187.188,264.559,181.429,246.422,180.709,243.484"/>
</g>
</svg>
