<?xml version="1.0" encoding="utf-8"?>
<svg viewBox="53.7378 33.6674 59.9999 60" xmlns="http://www.w3.org/2000/svg">
  <g style="" transform="matrix(-0.9999999999999999, 0, 0, 0.9999999999999999, 167.47540782318717, 0)">
    <path fill="#000000" opacity="1.000000" stroke="none" d="M 53.826 35.733 C 53.792 35.043 53.792 34.395 53.868 33.747 C 54.252 33.913 54.512 34.14 54.762 34.388 C 74.178 53.793 93.6 73.2 113.019 92.604 C 113.247 92.832 113.499 93.043 113.652 93.4 C 113.057 93.792 112.379 93.492 111.66 93.59 C 111.225 93.409 110.947 93.127 110.664 92.845 C 106.959 89.14 103.253 85.441 99.551 81.736 C 94.649 76.832 89.738 71.941 84.838 67.038 C 79.85 62.047 74.851 57.067 69.862 52.074 C 64.752 46.958 59.628 41.857 54.518 36.74 C 54.24 36.462 53.9 36.218 53.826 35.733 Z"/>
    <path fill="#000000" opacity="1.000000" stroke="none" d="M 55.706 33.789 C 56.341 33.747 56.944 33.747 57.615 33.747 C 57.997 33.913 58.256 34.14 58.504 34.388 C 76.675 52.548 94.848 70.705 113.019 88.862 C 113.247 89.092 113.499 89.302 113.652 89.659 C 113.684 90.304 113.684 90.906 113.684 91.578 C 113.238 91.873 113.053 91.471 112.827 91.252 C 111.632 90.085 110.459 88.897 109.277 87.715 C 106.029 84.474 102.786 81.228 99.539 77.986 C 95.216 73.669 90.894 69.352 86.575 65.032 C 81.585 60.042 76.586 55.062 71.6 50.07 C 66.506 44.972 61.4 39.889 56.312 34.785 C 56.042 34.515 55.647 34.308 55.706 33.789 Z"/>
    <path fill="#000000" opacity="1.000000" stroke="none" d="M 109.825 93.548 C 109.189 93.59 108.585 93.59 107.913 93.59 C 107.509 93.418 107.238 93.166 106.974 92.898 C 104.198 90.07 101.39 87.272 98.586 84.475 C 95.745 81.643 92.9 78.812 90.058 75.984 C 83.328 69.286 76.618 62.569 69.906 55.855 C 64.778 50.727 59.642 45.608 54.517 40.479 C 54.24 40.201 53.9 39.957 53.826 39.475 C 53.792 38.881 53.792 38.328 53.792 37.706 C 54.001 37.466 54.164 37.604 54.322 37.723 C 54.505 37.856 54.655 38.025 54.813 38.184 C 72.95 56.305 91.087 74.426 109.22 92.552 C 109.489 92.822 109.883 93.031 109.825 93.548 Z"/>
    <path fill="#000000" opacity="1.000000" stroke="none" d="M 59.449 33.789 C 60.085 33.747 60.687 33.747 61.359 33.747 C 61.74 33.913 61.998 34.14 62.247 34.388 C 79.168 51.301 96.096 68.212 113.019 85.123 C 113.247 85.352 113.499 85.562 113.652 85.92 C 113.684 86.563 113.684 87.166 113.684 87.836 C 113.319 88.114 113.127 87.814 112.933 87.619 C 110.109 84.805 107.285 81.99 104.471 79.164 C 102.764 77.452 101.039 75.76 99.337 74.042 C 95.973 70.64 92.581 67.268 89.198 63.888 C 84.582 59.274 79.957 54.666 75.333 50.058 C 70.233 44.973 65.142 39.882 60.055 34.785 C 59.785 34.515 59.392 34.308 59.449 33.789 Z"/>
    <path fill="#000000" opacity="1.000000" stroke="none" d="M 53.826 43.214 C 53.792 42.62 53.792 42.068 53.792 41.448 C 54.001 41.205 54.164 41.343 54.322 41.462 C 54.502 41.595 54.654 41.766 54.812 41.923 C 71.702 58.797 88.591 75.673 105.476 92.554 C 105.745 92.822 106.14 93.032 106.081 93.548 C 105.446 93.59 104.843 93.59 104.172 93.59 C 103.793 93.426 103.529 93.2 103.283 92.952 C 98.619 88.238 93.91 83.572 89.227 78.878 C 84.596 74.239 79.936 69.626 75.309 64.984 C 73.075 62.743 70.85 60.489 68.607 58.26 C 65.764 55.429 62.924 52.592 60.074 49.766 C 58.198 47.906 56.323 46.045 54.464 44.168 C 54.202 43.904 53.895 43.669 53.826 43.214 Z"/>
    <path fill="#000000" opacity="1.000000" stroke="none" d="M 63.192 33.789 C 63.828 33.747 64.43 33.747 65.102 33.747 C 65.481 33.913 65.743 34.14 65.99 34.388 C 81.666 50.054 97.343 65.719 113.019 81.384 C 113.247 81.612 113.499 81.823 113.652 82.18 C 113.684 82.824 113.684 83.425 113.684 84.097 C 113.437 84.355 113.265 84.168 113.096 84.032 C 112.899 83.878 112.734 83.69 112.559 83.515 C 108.593 79.548 104.622 75.588 100.656 71.622 C 95.527 66.494 90.392 61.371 85.266 56.244 C 80.12 51.097 74.962 45.962 69.823 40.812 C 67.782 38.766 65.72 36.739 63.691 34.681 C 63.456 34.442 63.121 34.249 63.192 33.789 Z"/>
    <path fill="#000000" opacity="1.000000" stroke="none" d="M 53.826 46.956 C 53.792 46.362 53.792 45.807 53.792 45.187 C 54.001 44.947 54.164 45.085 54.322 45.204 C 54.502 45.337 54.655 45.505 54.812 45.663 C 70.454 61.292 86.096 76.92 101.732 92.552 C 102.002 92.822 102.396 93.031 102.338 93.548 C 101.702 93.59 101.1 93.59 100.428 93.59 C 99.283 92.924 98.533 91.904 97.653 91.034 C 93.578 87 89.535 82.932 85.479 78.874 C 80.935 74.323 76.369 69.793 71.82 65.246 C 66.74 60.171 61.653 55.104 56.582 50.022 C 55.842 49.28 55.107 48.534 54.358 47.803 C 54.126 47.575 53.889 47.348 53.826 46.956 Z"/>
    <path fill="#FFFFFF" opacity="0.000000" stroke="none" d="M 55.67 33.747 C 55.69 34.089 55.988 34.214 56.169 34.395 C 60.064 38.295 63.962 42.188 67.86 46.083 C 72.806 51.026 77.752 55.968 82.699 60.909 C 87.768 65.976 92.838 71.04 97.908 76.105 C 102.923 81.118 107.94 86.132 112.959 91.14 C 113.148 91.326 113.279 91.594 113.633 91.646 C 113.684 92.198 113.684 92.75 113.684 93.373 C 113.483 93.264 113.27 93.097 113.079 92.908 C 93.373 73.222 73.669 53.534 53.952 33.798 C 54.494 33.747 55.047 33.747 55.67 33.747 Z"/>
    <path fill="#000000" opacity="1.000000" stroke="none" d="M 113.652 78.439 C 113.684 79.082 113.684 79.686 113.684 80.356 C 113.28 80.642 113.088 80.296 112.881 80.086 C 111.745 78.931 110.581 77.803 109.435 76.657 C 106.245 73.464 103.049 70.278 99.86 67.086 C 94.887 62.114 89.908 57.151 84.939 52.178 C 79.866 47.101 74.774 42.037 69.709 36.951 C 68.917 36.157 68.118 35.371 67.329 34.575 C 67.124 34.37 66.855 34.188 66.936 33.789 C 67.572 33.747 68.174 33.747 68.846 33.747 C 69.225 33.913 69.486 34.14 69.734 34.388 C 84.162 48.807 98.592 63.224 113.019 77.642 C 113.247 77.87 113.499 78.082 113.652 78.439 Z"/>
    <path fill="#FFFFFF" opacity="0.000000" stroke="none" d="M 109.861 93.59 C 109.883 93.217 109.529 93.12 109.351 92.941 C 91.701 75.292 74.044 57.649 56.385 40.008 C 55.558 39.18 54.714 38.37 53.834 37.596 C 53.792 37.035 53.792 36.433 53.792 35.762 C 54.033 35.959 54.265 36.235 54.518 36.489 C 58.412 40.386 62.311 44.28 66.207 48.175 C 71.137 53.097 76.064 58.022 80.994 62.946 C 86.046 67.993 91.096 73.04 96.147 78.088 C 101.287 83.224 106.428 88.357 111.578 93.541 C 111.036 93.59 110.483 93.59 109.861 93.59 Z"/>
    <path fill="#000000" opacity="1.000000" stroke="none" d="M 53.826 50.695 C 53.792 50.101 53.792 49.549 53.792 48.927 C 54.001 48.686 54.164 48.825 54.322 48.943 C 54.502 49.077 54.655 49.245 54.813 49.405 C 69.206 63.786 83.6 78.166 97.989 92.552 C 98.258 92.822 98.652 93.031 98.595 93.548 C 97.959 93.59 97.357 93.59 96.685 93.59 C 96.253 93.409 95.973 93.127 95.69 92.845 C 91.987 89.14 88.279 85.441 84.576 81.734 C 79.676 76.831 74.764 71.94 69.862 67.036 C 64.752 61.921 59.629 56.816 54.518 51.702 C 54.24 51.422 53.9 51.18 53.826 50.695 Z"/>
    <path fill="#FFFFFF" opacity="0.000000" stroke="none" d="M 59.412 33.747 C 59.427 34.058 59.695 34.178 59.859 34.345 C 62.624 37.116 65.396 39.883 68.166 42.65 C 69.862 44.347 71.562 46.041 73.258 47.737 C 76.455 50.931 79.627 54.151 82.858 57.312 C 85.03 59.437 87.187 61.58 89.329 63.73 C 92.05 66.462 94.783 69.182 97.483 71.935 C 99.513 74.004 101.58 76.036 103.631 78.085 C 106.757 81.208 109.883 84.332 113.013 87.452 C 113.183 87.62 113.3 87.868 113.633 87.906 C 113.684 88.459 113.684 89.011 113.684 89.632 C 113.483 89.524 113.27 89.358 113.079 89.167 C 94.621 70.729 76.162 52.287 57.696 33.798 C 58.238 33.747 58.792 33.747 59.412 33.747 Z"/>
    <path fill="#000000" opacity="1.000000" stroke="none" d="M 70.68 33.789 C 71.313 33.747 71.917 33.747 72.589 33.747 C 72.97 33.913 73.228 34.14 73.478 34.388 C 86.658 47.562 99.839 60.732 113.019 73.903 C 113.247 74.131 113.499 74.342 113.652 74.7 C 113.684 75.343 113.684 75.944 113.684 76.616 C 113.238 76.912 113.053 76.512 112.827 76.292 C 111.632 75.124 110.459 73.936 109.277 72.754 C 106.029 69.512 102.785 66.266 99.539 63.024 C 95.198 58.689 90.858 54.355 86.521 50.017 C 81.442 44.937 76.356 39.871 71.286 34.788 C 71.016 34.515 70.621 34.308 70.68 33.789 Z"/>
    <path fill="#FFFFFF" opacity="0.000000" stroke="none" d="M 106.117 93.59 C 106.196 93.292 105.889 93.224 105.765 93.1 C 88.587 75.92 71.404 58.748 54.218 41.577 C 54.114 41.473 53.99 41.388 53.834 41.335 C 53.792 40.776 53.792 40.173 53.792 39.501 C 54.033 39.698 54.265 39.975 54.518 40.23 C 57.162 42.877 59.809 45.519 62.455 48.163 C 64.292 50 66.132 51.836 67.97 53.673 C 71.096 56.797 74.222 59.919 77.349 63.044 C 79.221 64.916 81.096 66.788 82.969 68.662 C 86.113 71.803 89.257 74.944 92.401 78.085 C 94.185 79.868 95.972 81.654 97.758 83.437 C 101.113 86.788 104.469 90.14 107.835 93.541 C 107.293 93.59 106.74 93.59 106.117 93.59 Z"/>
    <path fill="#FFFFFF" opacity="0.000000" stroke="none" d="M 63.157 33.747 C 63.172 34.058 63.436 34.177 63.602 34.344 C 64.956 35.706 66.314 37.058 67.672 38.415 C 70.778 41.52 73.885 44.623 76.992 47.726 C 78.986 49.722 80.983 51.715 82.978 53.709 C 86.12 56.85 89.262 59.988 92.402 63.127 C 94.239 64.963 96.078 66.798 97.915 68.634 C 101.073 71.79 104.233 74.947 107.393 78.104 C 109.265 79.975 111.137 81.847 113.013 83.713 C 113.184 83.881 113.3 84.128 113.633 84.166 C 113.684 84.718 113.684 85.272 113.684 85.892 C 113.484 85.783 113.27 85.616 113.079 85.428 C 95.869 68.234 78.66 51.042 61.44 33.798 C 61.981 33.747 62.534 33.747 63.157 33.747 Z"/>
    <path fill="#000000" opacity="1.000000" stroke="none" d="M 94.853 93.548 C 94.217 93.59 93.613 93.59 92.941 93.59 C 92.536 93.418 92.264 93.166 92 92.899 C 89.226 90.072 86.421 87.271 83.616 84.476 C 80.278 81.156 76.942 77.83 73.608 74.509 C 67.232 68.164 60.877 61.8 54.517 55.441 C 54.24 55.161 53.9 54.919 53.826 54.435 C 53.792 53.841 53.792 53.288 53.792 52.668 C 53.962 52.447 54.118 52.538 54.265 52.638 C 54.451 52.765 54.602 52.933 54.759 53.091 C 67.941 66.262 81.122 79.43 94.298 92.605 C 94.553 92.858 94.916 93.06 94.853 93.548 Z"/>
    <path fill="#FFFFFF" opacity="0.000000" stroke="none" d="M 102.375 93.59 C 102.453 93.292 102.145 93.224 102.023 93.102 C 86.094 77.167 70.155 61.243 54.218 45.318 C 54.114 45.212 53.99 45.127 53.834 45.075 C 53.792 44.516 53.792 43.914 53.792 43.243 C 55.605 45.006 57.408 46.85 59.246 48.657 C 59.502 48.908 59.718 49.189 59.972 49.44 C 62.667 52.106 65.319 54.817 68.035 57.463 C 70.156 59.532 72.254 61.629 74.349 63.724 C 76.741 66.114 79.13 68.51 81.5 70.924 C 83.653 73.117 85.844 75.272 88.018 77.446 C 91.198 80.623 94.379 83.8 97.559 86.977 C 99.732 89.149 101.906 91.321 104.093 93.541 C 103.549 93.59 102.996 93.59 102.375 93.59 Z"/>
    <path fill="#000000" opacity="1.000000" stroke="none" d="M 74.421 33.789 C 75.058 33.747 75.661 33.747 76.333 33.747 C 76.712 33.913 76.972 34.14 77.221 34.388 C 89.152 46.314 101.085 58.238 113.019 70.164 C 113.247 70.392 113.499 70.602 113.652 70.958 C 113.684 71.602 113.684 72.205 113.684 72.876 C 113.319 73.153 113.129 72.853 112.933 72.66 C 110.111 69.846 107.286 67.03 104.473 64.206 C 102.786 62.51 101.076 60.837 99.393 59.137 C 96.017 55.718 92.606 52.328 89.205 48.932 C 84.482 44.214 79.76 39.494 75.027 34.785 C 74.758 34.518 74.365 34.308 74.421 33.789 Z"/>
    <path fill="#FFFFFF" opacity="0.000000" stroke="none" d="M 66.9 33.747 C 66.92 34.089 67.218 34.214 67.4 34.395 C 71.983 38.984 76.573 43.568 81.159 48.152 C 86.158 53.145 91.156 58.141 96.153 63.134 C 101.15 68.128 106.139 73.132 111.157 78.104 C 111.95 78.889 112.633 79.796 113.633 80.425 C 113.684 80.978 113.684 81.53 113.684 82.152 C 113.483 82.044 113.27 81.877 113.079 81.686 C 97.117 65.742 81.156 49.795 65.181 33.798 C 65.725 33.747 66.278 33.747 66.9 33.747 Z"/>
    <path fill="#000000" opacity="1.000000" stroke="none" d="M 53.826 58.176 C 53.792 57.582 53.792 57.03 53.792 56.407 C 53.962 56.186 54.118 56.277 54.262 56.378 C 54.451 56.504 54.601 56.672 54.759 56.832 C 66.693 68.755 78.627 80.677 90.556 92.605 C 90.808 92.858 91.173 93.061 91.107 93.548 C 90.474 93.59 89.87 93.59 89.198 93.59 C 88.819 93.426 88.556 93.2 88.31 92.952 C 83.647 88.238 78.933 83.576 74.256 78.88 C 70.772 75.385 67.276 71.904 63.775 68.428 C 60.661 65.338 57.566 62.23 54.464 59.127 C 54.201 58.866 53.895 58.629 53.826 58.176 Z"/>
    <path fill="#FFFFFF" opacity="0.000000" stroke="none" d="M 98.63 93.59 C 98.711 93.292 98.402 93.224 98.28 93.102 C 83.596 78.415 68.907 63.736 54.218 49.058 C 54.114 48.954 53.99 48.867 53.834 48.816 C 53.792 48.255 53.792 47.654 53.792 46.982 C 54.602 47.748 55.401 48.59 56.222 49.412 C 60.148 53.346 64.084 57.272 68.016 61.201 C 72.889 66.07 77.762 70.939 82.636 75.81 C 87.74 80.908 92.841 86.006 97.945 91.105 C 98.742 91.902 99.541 92.696 100.347 93.541 C 99.806 93.59 99.253 93.59 98.63 93.59 Z"/>
    <path fill="#FFFFFF" opacity="0.000000" stroke="none" d="M 70.642 33.747 C 70.664 34.089 70.962 34.214 71.143 34.395 C 75.104 38.364 79.07 42.324 83.036 46.286 C 87.926 51.171 92.816 56.059 97.706 60.944 C 102.791 66.024 107.873 71.104 112.962 76.18 C 113.148 76.364 113.279 76.633 113.633 76.686 C 113.684 77.238 113.684 77.791 113.684 78.412 C 113.483 78.304 113.27 78.136 113.079 77.947 C 98.365 63.248 83.65 48.547 68.925 33.798 C 69.468 33.747 70.021 33.747 70.642 33.747 Z"/>
    <path fill="#000000" opacity="1.000000" stroke="none" d="M 78.165 33.789 C 78.8 33.747 79.402 33.747 80.076 33.747 C 80.455 33.913 80.715 34.14 80.962 34.388 C 91.647 45.067 102.333 55.746 113.019 66.422 C 113.247 66.65 113.499 66.862 113.652 67.219 C 113.684 67.862 113.684 68.464 113.684 69.136 C 113.357 69.418 113.177 69.142 112.987 68.971 C 112.565 68.584 112.169 68.167 111.764 67.76 C 107.961 63.952 104.144 60.153 100.341 56.346 C 95.162 51.163 89.967 45.997 84.796 40.809 C 82.756 38.763 80.692 36.74 78.664 34.682 C 78.429 34.442 78.093 34.249 78.165 33.789 Z"/>
    <path fill="#FFFFFF" opacity="0.000000" stroke="none" d="M 94.887 93.59 C 94.968 93.292 94.658 93.224 94.536 93.1 C 81.102 79.662 67.662 66.229 54.218 52.797 C 54.114 52.693 53.99 52.608 53.834 52.556 C 53.792 51.997 53.792 51.393 53.792 50.724 C 54.033 50.919 54.265 51.195 54.518 51.451 C 58.345 55.279 62.174 59.103 66.004 62.929 C 70.899 67.82 75.794 72.714 80.69 77.604 C 85.992 82.9 91.292 88.196 96.606 93.541 C 96.062 93.59 95.509 93.59 94.887 93.59 Z"/>
    <path fill="#000000" opacity="1.000000" stroke="none" d="M 53.826 61.915 C 53.792 61.321 53.792 60.769 53.792 60.147 C 53.962 59.928 54.118 60.019 54.265 60.117 C 54.451 60.246 54.601 60.414 54.759 60.572 C 65.445 71.248 76.132 81.924 86.814 92.605 C 87.066 92.858 87.43 93.061 87.366 93.548 C 86.728 93.59 86.126 93.59 85.455 93.59 C 84.31 92.924 83.559 91.904 82.681 91.034 C 78.606 87 74.562 82.932 70.507 78.874 C 65.872 74.236 61.221 69.613 56.582 64.981 C 55.842 64.242 55.107 63.494 54.358 62.764 C 54.126 62.536 53.889 62.31 53.826 61.915 Z"/>
    <path fill="#FFFFFF" opacity="0.000000" stroke="none" d="M 74.385 33.747 C 74.401 34.058 74.666 34.178 74.833 34.344 C 77.595 37.113 80.353 39.891 83.144 42.632 C 83.647 43.125 84.126 43.64 84.622 44.137 C 89.04 48.541 93.448 52.95 97.861 57.357 C 99.786 59.282 101.712 61.207 103.637 63.13 C 106.761 66.252 109.885 69.374 113.013 72.492 C 113.184 72.66 113.3 72.908 113.633 72.944 C 113.684 73.498 113.684 74.05 113.684 74.671 C 113.484 74.563 113.27 74.396 113.082 74.208 C 99.613 60.756 86.145 47.3 72.669 33.798 C 73.212 33.747 73.765 33.747 74.385 33.747 Z"/>
    <path fill="#000000" opacity="1.000000" stroke="none" d="M 81.909 33.789 C 82.544 33.747 83.148 33.747 83.82 33.747 C 84.199 33.913 84.458 34.14 84.708 34.388 C 94.144 43.82 103.583 53.251 113.019 62.682 C 113.247 62.911 113.499 63.121 113.652 63.478 C 113.684 64.122 113.684 64.724 113.684 65.395 C 113.28 65.682 113.088 65.335 112.881 65.125 C 111.745 63.97 110.581 62.842 109.435 61.695 C 106.245 58.503 103.049 55.316 99.86 52.124 C 94.801 47.066 89.731 42.019 84.68 36.95 C 83.89 36.157 83.092 35.371 82.302 34.575 C 82.096 34.37 81.829 34.188 81.909 33.789 Z"/>
    <path fill="#FFFFFF" opacity="0.000000" stroke="none" d="M 91.144 93.59 C 91.222 93.292 90.916 93.224 90.793 93.102 C 78.607 80.908 66.414 68.722 54.218 56.538 C 54.114 56.433 53.99 56.348 53.834 56.295 C 53.792 55.736 53.792 55.135 53.792 54.463 C 54.033 54.66 54.265 54.936 54.517 55.19 C 57.036 57.711 59.558 60.229 62.078 62.748 C 64.057 64.724 66.033 66.702 68.012 68.678 C 71.066 71.73 74.12 74.78 77.173 77.832 C 79.01 79.666 80.847 81.502 82.686 83.338 C 86.073 86.724 89.462 90.108 92.862 93.541 C 92.319 93.59 91.766 93.59 91.144 93.59 Z"/>
    <path fill="#000000" opacity="1.000000" stroke="none" d="M 53.826 65.656 C 53.792 65.062 53.792 64.51 53.792 63.888 C 53.962 63.667 54.118 63.758 54.265 63.859 C 54.451 63.985 54.602 64.154 54.759 64.312 C 64.198 73.741 73.635 83.172 83.068 92.605 C 83.323 92.858 83.685 93.06 83.622 93.548 C 82.987 93.59 82.384 93.59 81.712 93.59 C 81.306 93.418 81.037 93.164 80.772 92.899 C 77.04 89.166 73.304 85.436 69.571 81.704 C 64.554 76.688 59.532 71.677 54.517 66.66 C 54.24 66.382 53.9 66.139 53.826 65.656 Z"/>
    <path fill="#FFFFFF" opacity="0.000000" stroke="none" d="M 78.13 33.747 C 78.145 34.058 78.41 34.178 78.576 34.344 C 79.929 35.707 81.289 37.059 82.647 38.418 C 85.755 41.522 88.862 44.628 91.97 47.732 C 93.949 49.711 95.929 51.687 97.908 53.665 C 101.085 56.84 104.264 60.015 107.443 63.193 C 109.298 65.047 111.152 66.902 113.013 68.752 C 113.184 68.92 113.3 69.168 113.633 69.205 C 113.684 69.757 113.684 70.31 113.684 70.932 C 113.484 70.824 113.27 70.656 113.079 70.466 C 100.861 58.261 88.641 46.053 76.412 33.798 C 76.953 33.747 77.508 33.747 78.13 33.747 Z"/>
    <path fill="#FFFFFF" opacity="0.000000" stroke="none" d="M 87.402 93.59 C 87.476 93.336 87.218 93.259 87.108 93.148 C 76.112 82.153 65.112 71.164 54.11 60.175 C 54.042 60.105 53.954 60.054 53.834 60.037 C 53.792 59.478 53.792 58.874 53.792 58.203 C 55.604 59.966 57.416 61.797 59.229 63.631 C 59.461 63.865 59.692 64.1 59.925 64.334 C 62.656 67.066 65.367 69.822 68.132 72.52 C 70.233 74.574 72.326 76.638 74.389 78.724 C 77.308 81.676 80.265 84.595 83.175 87.56 C 85.134 89.556 87.129 91.516 89.119 93.541 C 88.576 93.59 88.022 93.59 87.402 93.59 Z"/>
    <path fill="#000000" opacity="1.000000" stroke="none" d="M 113.652 59.738 C 113.684 60.381 113.684 60.984 113.684 61.656 C 113.238 61.951 113.053 61.55 112.827 61.332 C 111.632 60.163 110.459 58.975 109.277 57.794 C 106.063 54.585 102.855 51.375 99.643 48.169 C 95.18 43.71 90.715 39.253 86.258 34.788 C 85.989 34.515 85.593 34.308 85.652 33.789 C 86.287 33.747 86.89 33.747 87.561 33.747 C 87.942 33.913 88.201 34.14 88.45 34.387 C 96.638 42.573 104.831 50.757 113.019 58.944 C 113.247 59.172 113.499 59.382 113.652 59.738 Z"/>
    <path fill="#FFFFFF" opacity="0.000000" stroke="none" d="M 81.872 33.747 C 81.895 34.089 82.192 34.214 82.374 34.395 C 86.96 38.988 91.552 43.574 96.143 48.162 C 101.143 53.16 106.134 58.166 111.156 63.142 C 111.949 63.928 112.633 64.836 113.633 65.464 C 113.684 66.018 113.684 66.57 113.684 67.192 C 113.483 67.082 113.27 66.916 113.079 66.727 C 102.108 55.767 91.136 44.808 80.155 33.798 C 80.698 33.747 81.252 33.747 81.872 33.747 Z"/>
    <path fill="#000000" opacity="1.000000" stroke="none" d="M 79.879 93.548 C 79.243 93.59 78.639 93.59 77.967 93.59 C 77.563 93.418 77.292 93.166 77.029 92.899 C 74.253 90.073 71.458 87.268 68.647 84.48 C 63.926 79.796 59.241 75.079 54.517 70.4 C 54.238 70.123 53.9 69.88 53.826 69.396 C 53.792 68.802 53.792 68.25 53.792 67.628 C 53.962 67.408 54.116 67.5 54.262 67.598 C 54.429 67.71 54.565 67.858 54.705 67.999 C 62.932 76.218 71.158 84.436 79.381 92.658 C 79.616 92.894 79.948 93.09 79.879 93.548 Z"/>
    <path fill="#FFFFFF" opacity="0.000000" stroke="none" d="M 83.656 93.59 C 83.732 93.336 83.475 93.259 83.365 93.148 C 73.616 83.4 63.862 73.657 54.11 63.914 C 54.042 63.846 53.954 63.794 53.834 63.776 C 53.792 63.217 53.792 62.616 53.792 61.944 C 54.602 62.708 55.401 63.552 56.224 64.375 C 60.066 68.221 63.912 72.062 67.758 75.904 C 72.83 80.971 77.9 86.038 82.972 91.105 C 83.769 91.902 84.566 92.696 85.375 93.541 C 84.832 93.59 84.279 93.59 83.656 93.59 Z"/>
    <path fill="#000000" opacity="1.000000" stroke="none" d="M 113.652 55.998 C 113.684 56.641 113.684 57.243 113.684 57.914 C 113.319 58.191 113.127 57.894 112.935 57.698 C 110.082 54.846 107.205 52.015 104.378 49.137 C 103.578 48.32 102.745 47.533 101.936 46.722 C 97.959 42.74 93.973 38.769 90 34.785 C 89.731 34.515 89.338 34.308 89.395 33.789 C 90.031 33.747 90.633 33.747 91.305 33.747 C 91.686 33.913 91.945 34.14 92.192 34.387 C 99.135 41.328 106.079 48.265 113.019 55.202 C 113.247 55.43 113.499 55.641 113.652 55.998 Z"/>
    <path fill="#FFFFFF" opacity="0.000000" stroke="none" d="M 85.616 33.747 C 85.638 34.089 85.935 34.214 86.116 34.395 C 90.044 38.33 93.978 42.258 97.91 46.188 C 102.926 51.199 107.941 56.211 112.962 61.219 C 113.148 61.405 113.279 61.671 113.633 61.724 C 113.684 62.276 113.684 62.83 113.684 63.451 C 113.483 63.343 113.27 63.175 113.079 62.986 C 103.356 53.274 93.632 43.561 83.899 33.798 C 84.44 33.747 84.993 33.747 85.616 33.747 Z"/>
    <path fill="#000000" opacity="1.000000" stroke="none" d="M 53.826 73.136 C 53.792 72.542 53.792 71.99 53.792 71.368 C 53.962 71.148 54.118 71.24 54.262 71.338 C 54.429 71.45 54.566 71.599 54.708 71.738 C 61.686 78.71 68.662 85.682 75.637 92.658 C 75.873 92.894 76.207 93.09 76.135 93.548 C 75.498 93.59 74.896 93.59 74.226 93.59 C 73.872 93.433 73.621 93.236 73.39 93.006 C 68.9 88.51 64.4 84.024 59.911 79.53 C 58.08 77.696 56.236 75.874 54.41 74.036 C 54.164 73.789 53.89 73.561 53.826 73.136 Z"/>
    <path fill="#FFFFFF" opacity="0.000000" stroke="none" d="M 79.915 93.59 C 79.99 93.336 79.732 93.259 79.621 93.148 C 71.121 84.646 62.617 76.15 54.11 67.656 C 54.042 67.586 53.954 67.534 53.834 67.516 C 53.792 66.958 53.792 66.355 53.792 65.683 C 54.033 65.881 54.262 66.157 54.518 66.41 C 58.412 70.306 62.307 74.2 66.205 78.092 C 71.344 83.227 76.483 88.358 81.632 93.541 C 81.088 93.59 80.535 93.59 79.915 93.59 Z"/>
    <path fill="#FFFFFF" opacity="0.000000" stroke="none" d="M 89.359 33.747 C 89.373 34.058 89.641 34.178 89.805 34.345 C 92.572 37.117 95.342 39.883 98.113 42.65 C 99.917 44.454 101.721 46.255 103.523 48.056 C 106.686 51.216 109.845 54.375 113.013 57.53 C 113.183 57.698 113.3 57.948 113.633 57.985 C 113.684 58.537 113.684 59.089 113.684 59.712 C 113.499 59.619 113.305 59.473 113.132 59.3 C 104.639 50.817 96.145 42.332 87.642 33.798 C 88.184 33.747 88.738 33.747 89.359 33.747 Z"/>
    <path fill="#000000" opacity="1.000000" stroke="none" d="M 93.139 33.789 C 93.774 33.747 94.376 33.747 95.049 33.747 C 95.427 33.913 95.688 34.14 95.936 34.388 C 101.629 40.081 107.324 45.77 113.019 51.462 C 113.247 51.691 113.499 51.901 113.652 52.257 C 113.684 52.902 113.684 53.503 113.684 54.175 C 113.28 54.459 113.094 54.111 112.881 53.905 C 111.986 53.037 111.113 52.149 110.232 51.27 C 106.729 47.76 103.207 44.271 99.714 40.754 C 97.697 38.721 95.642 36.726 93.637 34.682 C 93.402 34.442 93.067 34.249 93.139 33.789 Z"/>
    <path fill="#FFFFFF" opacity="0.000000" stroke="none" d="M 76.171 93.59 C 76.245 93.336 75.987 93.259 75.878 93.15 C 68.625 85.894 61.369 78.644 54.11 71.395 C 54.042 71.326 53.954 71.274 53.834 71.257 C 53.792 70.698 53.792 70.096 53.792 69.424 C 54.033 69.62 54.265 69.898 54.518 70.152 C 57.162 72.798 59.809 75.44 62.455 78.085 C 64.239 79.868 66.026 81.654 67.812 83.437 C 71.167 86.788 74.522 90.14 77.889 93.541 C 77.346 93.59 76.794 93.59 76.171 93.59 Z"/>
    <path fill="#000000" opacity="1.000000" stroke="none" d="M 72.392 93.548 C 71.756 93.59 71.154 93.59 70.482 93.59 C 69.337 92.924 68.587 91.904 67.707 91.034 C 63.632 87 59.553 82.968 55.539 78.87 C 55.14 78.46 54.71 78.078 54.306 77.672 C 54.088 77.458 53.888 77.239 53.826 76.876 C 53.792 76.282 53.792 75.73 53.792 75.109 C 53.962 74.888 54.118 74.98 54.265 75.079 C 54.429 75.19 54.566 75.338 54.708 75.48 C 60.436 81.204 66.168 86.928 71.893 92.658 C 72.13 92.894 72.463 93.09 72.392 93.548 Z"/>
    <path fill="#FFFFFF" opacity="0.000000" stroke="none" d="M 93.103 33.747 C 93.118 34.058 93.382 34.177 93.549 34.344 C 94.935 35.738 96.327 37.125 97.719 38.516 C 100.892 41.688 104.066 44.858 107.241 48.03 C 109.164 49.952 111.085 51.876 113.013 53.791 C 113.184 53.959 113.3 54.207 113.633 54.243 C 113.684 54.795 113.684 55.35 113.684 55.97 C 113.499 55.88 113.304 55.731 113.132 55.561 C 105.885 48.324 98.641 41.085 91.386 33.798 C 91.927 33.747 92.48 33.747 93.103 33.747 Z"/>
    <path fill="#000000" opacity="1.000000" stroke="none" d="M 113.652 48.518 C 113.684 49.161 113.684 49.764 113.684 50.433 C 113.28 50.719 113.088 50.376 112.881 50.163 C 111.78 49.045 110.652 47.953 109.542 46.842 C 106.245 43.544 102.939 40.257 99.654 36.95 C 98.864 36.157 98.065 35.371 97.275 34.578 C 97.07 34.371 96.801 34.188 96.882 33.789 C 97.518 33.747 98.121 33.747 98.792 33.747 C 99.17 33.913 99.431 34.137 99.678 34.386 C 104.123 38.834 108.573 43.279 113.022 47.724 C 113.249 47.952 113.499 48.162 113.652 48.518 Z"/>
    <path fill="#FFFFFF" opacity="0.000000" stroke="none" d="M 72.429 93.59 C 72.528 93.364 72.283 93.3 72.187 93.202 C 66.147 87.158 60.104 81.118 54.061 75.08 C 54.008 75.028 53.938 74.996 53.834 74.996 C 53.792 74.437 53.792 73.836 53.792 73.164 C 55.602 74.924 57.398 76.766 59.23 78.572 C 59.485 78.822 59.707 79.098 59.96 79.346 C 62.649 82.009 65.319 84.688 67.995 87.362 C 70.041 89.406 72.087 91.448 74.145 93.541 C 73.603 93.59 73.048 93.59 72.429 93.59 Z"/>
    <path fill="#FFFFFF" opacity="0.000000" stroke="none" d="M 96.846 33.747 C 96.86 34.058 97.125 34.178 97.291 34.344 C 101.945 38.997 106.589 43.659 111.265 48.29 C 112.021 49.04 112.67 49.909 113.633 50.504 C 113.684 51.056 113.684 51.608 113.684 52.231 C 113.499 52.14 113.304 51.991 113.132 51.819 C 107.132 45.83 101.136 39.837 95.127 33.798 C 95.671 33.747 96.224 33.747 96.846 33.747 Z"/>
    <path fill="#000000" opacity="1.000000" stroke="none" d="M 53.826 80.617 C 53.792 80.023 53.792 79.47 53.792 78.848 C 54.24 78.553 54.426 78.954 54.649 79.174 C 55.88 80.376 57.088 81.6 58.308 82.816 C 61.57 86.077 64.837 89.336 68.096 92.604 C 68.349 92.858 68.712 93.06 68.649 93.548 C 68.012 93.59 67.411 93.59 66.738 93.59 C 66.36 93.426 66.099 93.2 65.852 92.953 C 62.056 89.155 58.26 85.362 54.463 81.566 C 54.2 81.306 53.895 81.07 53.826 80.617 Z"/>
    <path fill="#FFFFFF" opacity="0.000000" stroke="none" d="M 68.684 93.59 C 68.782 93.364 68.538 93.3 68.443 93.202 C 63.652 88.405 58.856 83.612 54.061 78.82 C 54.008 78.769 53.938 78.736 53.834 78.738 C 53.792 78.178 53.792 77.575 53.792 76.904 C 54.601 77.668 55.4 78.511 56.22 79.332 C 60.162 83.278 64.108 87.218 68.054 91.16 C 68.832 91.938 69.613 92.714 70.401 93.541 C 69.858 93.59 69.307 93.59 68.684 93.59 Z"/>
    <path fill="#000000" opacity="1.000000" stroke="none" d="M 100.626 33.789 C 101.259 33.747 101.863 33.747 102.535 33.747 C 102.888 33.906 103.139 34.101 103.369 34.333 C 106.602 37.569 109.838 40.802 113.073 44.036 C 113.286 44.246 113.51 44.445 113.652 44.778 C 113.684 45.421 113.684 46.022 113.684 46.694 C 113.24 46.989 113.053 46.592 112.831 46.374 C 111.114 44.682 109.413 42.973 107.711 41.269 C 105.512 39.074 103.314 36.882 101.121 34.68 C 100.886 34.442 100.554 34.249 100.626 33.789 Z"/>
    <path fill="#FFFFFF" opacity="0.000000" stroke="none" d="M 100.589 33.747 C 100.605 33.99 100.789 34.104 100.927 34.239 C 105.043 38.353 109.16 42.465 113.279 46.575 C 113.36 46.657 113.478 46.701 113.633 46.764 C 113.684 47.317 113.684 47.869 113.684 48.489 C 113.499 48.399 113.305 48.253 113.132 48.08 C 108.383 43.338 103.632 38.592 98.873 33.798 C 99.414 33.747 99.967 33.747 100.589 33.747 Z"/>
    <path fill="#000000" opacity="1.000000" stroke="none" d="M 64.905 93.548 C 64.27 93.59 63.667 93.59 62.995 93.59 C 62.617 93.426 62.356 93.2 62.11 92.953 C 59.563 90.402 57.01 87.856 54.463 85.306 C 54.2 85.045 53.895 84.81 53.826 84.356 C 53.792 83.762 53.792 83.21 53.792 82.59 C 54.272 82.3 54.462 82.728 54.699 82.963 C 57.189 85.43 59.665 87.912 62.143 90.388 C 62.935 91.18 63.73 91.966 64.514 92.764 C 64.717 92.97 64.986 93.151 64.905 93.548 Z"/>
    <path fill="#FFFFFF" opacity="0.000000" stroke="none" d="M 64.941 93.59 C 65.041 93.364 64.796 93.3 64.7 93.204 C 61.156 89.652 57.609 86.106 54.06 82.56 C 54.008 82.508 53.938 82.476 53.834 82.477 C 53.792 81.918 53.792 81.316 53.792 80.644 C 54.032 80.84 54.262 81.116 54.516 81.37 C 58.558 85.412 62.602 89.452 66.66 93.541 C 66.116 93.59 65.563 93.59 64.941 93.59 Z"/>
    <path fill="#000000" opacity="1.000000" stroke="none" d="M 113.652 41.037 C 113.684 41.682 113.684 42.283 113.684 42.955 C 113.358 43.236 113.169 42.969 112.989 42.792 C 110.202 40.027 107.426 37.25 104.655 34.47 C 104.483 34.297 104.286 34.123 104.367 33.789 C 105.005 33.747 105.607 33.747 106.28 33.747 C 106.632 33.906 106.881 34.104 107.112 34.334 C 109.097 36.325 111.086 38.31 113.073 40.297 C 113.286 40.507 113.51 40.706 113.652 41.037 Z"/>
    <path fill="#FFFFFF" opacity="0.000000" stroke="none" d="M 104.333 33.747 C 104.358 33.95 104.491 34.064 104.616 34.189 C 107.521 37.088 110.424 39.991 113.33 42.889 C 113.395 42.951 113.496 42.979 113.633 43.023 C 113.684 43.575 113.684 44.127 113.684 44.75 C 113.484 44.642 113.273 44.475 113.082 44.287 C 109.596 40.808 106.111 37.327 102.615 33.798 C 103.158 33.747 103.711 33.747 104.333 33.747 Z"/>
    <path fill="#FFFFFF" opacity="0.000000" stroke="none" d="M 53.792 84.385 C 54.032 84.582 54.262 84.856 54.516 85.11 C 57.309 87.906 60.108 90.698 62.916 93.541 C 62.372 93.59 61.82 93.59 61.198 93.59 C 58.689 91.192 56.268 88.774 53.829 86.298 C 53.792 85.658 53.792 85.056 53.792 84.385 Z"/>
    <path fill="#000000" opacity="1.000000" stroke="none" d="M 53.792 86.329 C 53.876 86.138 53.958 86.208 54.025 86.274 C 56.421 88.684 58.818 91.096 61.172 93.55 C 60.525 93.59 59.924 93.59 59.252 93.59 C 58.899 93.433 58.648 93.236 58.418 93.006 C 57.086 91.664 55.747 90.331 54.41 88.994 C 54.164 88.748 53.89 88.52 53.826 88.096 C 53.792 87.504 53.792 86.95 53.792 86.329 Z"/>
    <path fill="#FFFFFF" opacity="0.000000" stroke="none" d="M 113.684 41.01 C 112.092 39.512 110.497 37.946 108.906 36.378 C 108.056 35.538 107.215 34.689 106.358 33.798 C 106.899 33.747 107.454 33.747 108.077 33.747 C 109.986 35.55 111.807 37.369 113.647 39.247 C 113.684 39.836 113.684 40.388 113.684 41.01 Z"/>
    <path fill="#000000" opacity="1.000000" stroke="none" d="M 113.684 39.213 C 113.481 39.327 113.367 39.193 113.244 39.068 C 111.589 37.412 109.933 35.76 108.279 34.101 C 108.217 34.038 108.189 33.937 108.145 33.8 C 108.746 33.747 109.349 33.747 110.022 33.747 C 111.405 34.778 112.571 35.96 113.652 37.298 C 113.684 37.94 113.684 38.541 113.684 39.213 Z"/>
    <path fill="#FFFFFF" opacity="0.000000" stroke="none" d="M 53.792 88.124 C 55.177 89.464 56.562 90.874 57.948 92.281 C 58.347 92.688 58.756 93.088 59.17 93.541 C 58.629 93.59 58.076 93.59 57.456 93.59 C 56.193 92.437 55.02 91.266 53.829 90.037 C 53.792 89.398 53.792 88.796 53.792 88.124 Z"/>
    <path fill="#000000" opacity="1.000000" stroke="none" d="M 53.792 90.07 C 53.876 89.878 53.958 89.948 54.022 90.013 C 55.173 91.177 56.323 92.342 57.429 93.55 C 56.782 93.59 56.18 93.59 55.508 93.59 C 54.787 93.134 54.132 92.68 53.826 91.836 C 53.792 91.243 53.792 90.691 53.792 90.07 Z"/>
    <path fill="#FFFFFF" opacity="0.000000" stroke="none" d="M 113.684 37.269 C 112.494 36.175 111.302 35.011 110.101 33.798 C 110.645 33.747 111.198 33.747 111.818 33.747 C 112.478 34.308 113.057 34.878 113.649 35.508 C 113.684 36.096 113.684 36.648 113.684 37.269 Z"/>
    <path fill="#000000" opacity="1.000000" stroke="none" d="M 113.684 35.472 C 112.897 35.18 112.406 34.502 111.888 33.8 C 111.937 33.747 111.985 33.747 112.035 33.747 C 112.573 33.747 113.357 33.536 113.587 33.801 C 113.864 34.123 113.672 34.849 113.684 35.472 Z"/>
    <path fill="#FFFFFF" opacity="0.000000" stroke="none" d="M 53.792 91.867 C 54.333 92.36 54.877 92.926 55.429 93.541 C 54.901 93.59 54.118 93.802 53.888 93.536 C 53.612 93.216 53.803 92.49 53.792 91.867 Z"/>
  </g>
</svg>